<svg xmlns="http://www.w3.org/2000/svg" width="512" height="512" viewBox="-1.5 -0.5 26.5 26.5" shape-rendering="crispEdges">
    <path d="M7,23h1v1h2v1h7v-1h2v-1h1v-1h-1v-1h-2v-1h-7v1h-2v1h-1Z" fill="#201729" opacity="0.45"></path>
    <rect x="9" y="2" width="1" height="1" fill="#79584f"></rect>
    <rect x="10" y="2" width="1" height="1" fill="#79584f"></rect>
    <rect x="11" y="2" width="1" height="1" fill="#795a4f"></rect>
    <rect x="12" y="2" width="1" height="1" fill="#79584f"></rect>
    <rect x="13" y="2" width="1" height="1" fill="#79584f"></rect>
    <rect x="7" y="3" width="1" height="1" fill="#79584f"></rect>
    <rect x="8" y="3" width="1" height="1" fill="#79584f"></rect>
    <rect x="9" y="3" width="1" height="1" fill="#947b5c"></rect>
    <rect x="10" y="3" width="1" height="1" fill="#96785c"></rect>
    <rect x="11" y="3" width="1" height="1" fill="#94785c"></rect>
    <rect x="12" y="3" width="1" height="1" fill="#795a4f"></rect>
    <rect x="13" y="3" width="1" height="1" fill="#94785e"></rect>
    <rect x="14" y="3" width="1" height="1" fill="#7b584f"></rect>
    <rect x="15" y="3" width="1" height="1" fill="#79584f"></rect>
    <rect x="16" y="3" width="1" height="1" fill="#79584f"></rect>
    <rect x="6" y="4" width="1" height="1" fill="#79584f"></rect>
    <rect x="7" y="4" width="1" height="1" fill="#94785c"></rect>
    <rect x="8" y="4" width="1" height="1" fill="#94785c"></rect>
    <rect x="9" y="4" width="1" height="1" fill="#563a3f"></rect>
    <rect x="10" y="4" width="1" height="1" fill="#563b3f"></rect>
    <rect x="11" y="4" width="1" height="1" fill="#563a3f"></rect>
    <rect x="12" y="4" width="1" height="1" fill="#563a3f"></rect>
    <rect x="13" y="4" width="1" height="1" fill="#56383f"></rect>
    <rect x="14" y="4" width="1" height="1" fill="#94785c"></rect>
    <rect x="15" y="4" width="1" height="1" fill="#95785c"></rect>
    <rect x="16" y="4" width="1" height="1" fill="#947a5c"></rect>
    <rect x="17" y="4" width="1" height="1" fill="#79584c"></rect>
    <rect x="5" y="5" width="1" height="1" fill="#79584f"></rect>
    <rect x="6" y="5" width="1" height="1" fill="#94785c"></rect>
    <rect x="7" y="5" width="1" height="1" fill="#563a3f"></rect>
    <rect x="8" y="5" width="1" height="1" fill="#563a3f"></rect>
    <rect x="9" y="5" width="1" height="1" fill="#201729"></rect>
    <rect x="10" y="5" width="1" height="1" fill="#201729"></rect>
    <rect x="11" y="5" width="1" height="1" fill="#231729"></rect>
    <rect x="12" y="5" width="1" height="1" fill="#201729"></rect>
    <rect x="13" y="5" width="1" height="1" fill="#201729"></rect>
    <rect x="14" y="5" width="1" height="1" fill="#563a3f"></rect>
    <rect x="15" y="5" width="1" height="1" fill="#56383f"></rect>
    <rect x="16" y="5" width="1" height="1" fill="#94785c"></rect>
    <rect x="17" y="5" width="1" height="1" fill="#94785f"></rect>
    <rect x="18" y="5" width="1" height="1" fill="#79584f"></rect>
    <rect x="5" y="6" width="1" height="1" fill="#79584f"></rect>
    <rect x="6" y="6" width="1" height="1" fill="#94795c"></rect>
    <rect x="7" y="6" width="1" height="1" fill="#96785c"></rect>
    <rect x="8" y="6" width="1" height="1" fill="#201728"></rect>
    <rect x="9" y="6" width="1" height="1" fill="#201729"></rect>
    <rect x="10" y="6" width="1" height="1" fill="#201729"></rect>
    <rect x="11" y="6" width="1" height="1" fill="#201729"></rect>
    <rect x="12" y="6" width="1" height="1" fill="#201729"></rect>
    <rect x="13" y="6" width="1" height="1" fill="#221529"></rect>
    <rect x="14" y="6" width="1" height="1" fill="#201729"></rect>
    <rect x="15" y="6" width="1" height="1" fill="#94785c"></rect>
    <rect x="16" y="6" width="1" height="1" fill="#95795e"></rect>
    <rect x="17" y="6" width="1" height="1" fill="#94785c"></rect>
    <rect x="18" y="6" width="1" height="1" fill="#79584e"></rect>
    <rect x="5" y="7" width="1" height="1" fill="#201729"></rect>
    <rect x="6" y="7" width="1" height="1" fill="#79584f"></rect>
    <rect x="7" y="7" width="1" height="1" fill="#94785c"></rect>
    <rect x="8" y="7" width="1" height="1" fill="#94785c"></rect>
    <rect x="9" y="7" width="1" height="1" fill="#94785c"></rect>
    <rect x="10" y="7" width="1" height="1" fill="#94785c"></rect>
    <rect x="11" y="7" width="1" height="1" fill="#95785c"></rect>
    <rect x="12" y="7" width="1" height="1" fill="#94785c"></rect>
    <rect x="13" y="7" width="1" height="1" fill="#94785c"></rect>
    <rect x="14" y="7" width="1" height="1" fill="#94795c"></rect>
    <rect x="15" y="7" width="1" height="1" fill="#96785c"></rect>
    <rect x="16" y="7" width="1" height="1" fill="#79584f"></rect>
    <rect x="17" y="7" width="1" height="1" fill="#563b3f"></rect>
    <rect x="2" y="8" width="1" height="1" fill="#62eb3d"></rect>
    <rect x="3" y="8" width="1" height="1" fill="#62eb3d"></rect>
    <rect x="4" y="8" width="1" height="1" fill="#2eca35"></rect>
    <rect x="5" y="8" width="1" height="1" fill="#201729"></rect>
    <rect x="6" y="8" width="1" height="1" fill="#795a4f"></rect>
    <rect x="7" y="8" width="1" height="1" fill="#7b584f"></rect>
    <rect x="8" y="8" width="1" height="1" fill="#78584e"></rect>
    <rect x="9" y="8" width="1" height="1" fill="#94795c"></rect>
    <rect x="10" y="8" width="1" height="1" fill="#563a3f"></rect>
    <rect x="11" y="8" width="1" height="1" fill="#79584f"></rect>
    <rect x="12" y="8" width="1" height="1" fill="#79584f"></rect>
    <rect x="13" y="8" width="1" height="1" fill="#78584f"></rect>
    <rect x="14" y="8" width="1" height="1" fill="#79584f"></rect>
    <rect x="15" y="8" width="1" height="1" fill="#78584f"></rect>
    <rect x="16" y="8" width="1" height="1" fill="#79584f"></rect>
    <rect x="17" y="8" width="1" height="1" fill="#563a3f"></rect>
    <rect x="1" y="9" width="1" height="1" fill="#62eb3d"></rect>
    <rect x="2" y="9" width="1" height="1" fill="#2ecb35"></rect>
    <rect x="3" y="9" width="1" height="1" fill="#29963b"></rect>
    <rect x="4" y="9" width="1" height="1" fill="#29973b"></rect>
    <rect x="5" y="9" width="1" height="1" fill="#2c5b3f"></rect>
    <rect x="6" y="9" width="1" height="1" fill="#79594f"></rect>
    <rect x="7" y="9" width="1" height="1" fill="#563a3f"></rect>
    <rect x="8" y="9" width="1" height="1" fill="#79584f"></rect>
    <rect x="9" y="9" width="1" height="1" fill="#56383f"></rect>
    <rect x="10" y="9" width="1" height="1" fill="#7b584f"></rect>
    <rect x="11" y="9" width="1" height="1" fill="#573a3f"></rect>
    <rect x="12" y="9" width="1" height="1" fill="#201729"></rect>
    <rect x="13" y="9" width="1" height="1" fill="#201729"></rect>
    <rect x="14" y="9" width="1" height="1" fill="#563a3f"></rect>
    <rect x="15" y="9" width="1" height="1" fill="#79584f"></rect>
    <rect x="16" y="9" width="1" height="1" fill="#563a3f"></rect>
    <rect x="0" y="10" width="1" height="1" fill="#62e93d"></rect>
    <rect x="1" y="10" width="1" height="1" fill="#29963b"></rect>
    <rect x="2" y="10" width="1" height="1" fill="#29973b"></rect>
    <rect x="3" y="10" width="1" height="1" fill="#2ecb34"></rect>
    <rect x="4" y="10" width="1" height="1" fill="#2eca35"></rect>
    <rect x="5" y="10" width="1" height="1" fill="#201729"></rect>
    <rect x="6" y="10" width="1" height="1" fill="#2d5b3f"></rect>
    <rect x="7" y="10" width="1" height="1" fill="#563a3f"></rect>
    <rect x="8" y="10" width="1" height="1" fill="#94795c"></rect>
    <rect x="9" y="10" width="1" height="1" fill="#563a3f"></rect>
    <rect x="10" y="10" width="1" height="1" fill="#94785c"></rect>
    <rect x="11" y="10" width="1" height="1" fill="#ffffff"></rect>
    <rect x="12" y="10" width="1" height="1" fill="#201729"></rect>
    <rect x="13" y="10" width="1" height="1" fill="#201729"></rect>
    <rect x="14" y="10" width="1" height="1" fill="#ffffff"></rect>
    <rect x="15" y="10" width="1" height="1" fill="#79584d"></rect>
    <rect x="16" y="10" width="1" height="1" fill="#543a3f"></rect>
    <rect x="18" y="10" width="1" height="1" fill="#7b584d"></rect>
    <rect x="19" y="10" width="1" height="1" fill="#79584f"></rect>
    <rect x="0" y="11" width="1" height="1" fill="#29973b"></rect>
    <rect x="1" y="11" width="1" height="1" fill="#2ecb35"></rect>
    <rect x="2" y="11" width="1" height="1" fill="#2eca35"></rect>
    <rect x="5" y="11" width="1" height="1" fill="#201529"></rect>
    <rect x="6" y="11" width="1" height="1" fill="#79584f"></rect>
    <rect x="7" y="11" width="1" height="1" fill="#79584f"></rect>
    <rect x="8" y="11" width="1" height="1" fill="#94785c"></rect>
    <rect x="9" y="11" width="1" height="1" fill="#563a3d"></rect>
    <rect x="10" y="11" width="1" height="1" fill="#96785c"></rect>
    <rect x="11" y="11" width="1" height="1" fill="#201729"></rect>
    <rect x="12" y="11" width="1" height="1" fill="#22172b"></rect>
    <rect x="13" y="11" width="1" height="1" fill="#20172b"></rect>
    <rect x="14" y="11" width="1" height="1" fill="#201629"></rect>
    <rect x="15" y="11" width="1" height="1" fill="#79584f"></rect>
    <rect x="16" y="11" width="1" height="1" fill="#563a3f"></rect>
    <rect x="17" y="11" width="1" height="1" fill="#20172b"></rect>
    <rect x="18" y="11" width="1" height="1" fill="#94785c"></rect>
    <rect x="19" y="11" width="1" height="1" fill="#94785c"></rect>
    <rect x="20" y="11" width="1" height="1" fill="#79584f"></rect>
    <rect x="5" y="12" width="1" height="1" fill="#201728"></rect>
    <rect x="6" y="12" width="1" height="1" fill="#79584f"></rect>
    <rect x="7" y="12" width="1" height="1" fill="#79594e"></rect>
    <rect x="8" y="12" width="1" height="1" fill="#563a3d"></rect>
    <rect x="9" y="12" width="1" height="1" fill="#79584f"></rect>
    <rect x="10" y="12" width="1" height="1" fill="#7b584f"></rect>
    <rect x="11" y="12" width="1" height="1" fill="#94785c"></rect>
    <rect x="12" y="12" width="1" height="1" fill="#201529"></rect>
    <rect x="13" y="12" width="1" height="1" fill="#201729"></rect>
    <rect x="14" y="12" width="1" height="1" fill="#563a3f"></rect>
    <rect x="15" y="12" width="1" height="1" fill="#79584f"></rect>
    <rect x="16" y="12" width="1" height="1" fill="#201729"></rect>
    <rect x="17" y="12" width="1" height="1" fill="#563a3f"></rect>
    <rect x="18" y="12" width="1" height="1" fill="#573a3f"></rect>
    <rect x="19" y="12" width="1" height="1" fill="#94785c"></rect>
    <rect x="20" y="12" width="1" height="1" fill="#79584e"></rect>
    <rect x="5" y="13" width="1" height="1" fill="#221729"></rect>
    <rect x="6" y="13" width="1" height="1" fill="#79584f"></rect>
    <rect x="7" y="13" width="1" height="1" fill="#79584f"></rect>
    <rect x="8" y="13" width="1" height="1" fill="#563a3f"></rect>
    <rect x="9" y="13" width="1" height="1" fill="#7b584f"></rect>
    <rect x="10" y="13" width="1" height="1" fill="#79584f"></rect>
    <rect x="11" y="13" width="1" height="1" fill="#94785c"></rect>
    <rect x="12" y="13" width="1" height="1" fill="#795a4f"></rect>
    <rect x="13" y="13" width="1" height="1" fill="#79584f"></rect>
    <rect x="14" y="13" width="1" height="1" fill="#573a3f"></rect>
    <rect x="15" y="13" width="1" height="1" fill="#79584f"></rect>
    <rect x="16" y="13" width="1" height="1" fill="#201729"></rect>
    <rect x="17" y="13" width="1" height="1" fill="#563a3f"></rect>
    <rect x="18" y="13" width="1" height="1" fill="#563a3f"></rect>
    <rect x="19" y="13" width="1" height="1" fill="#201729"></rect>
    <rect x="5" y="14" width="1" height="1" fill="#201729"></rect>
    <rect x="6" y="14" width="1" height="1" fill="#56383f"></rect>
    <rect x="7" y="14" width="1" height="1" fill="#79584f"></rect>
    <rect x="8" y="14" width="1" height="1" fill="#563a3f"></rect>
    <rect x="9" y="14" width="1" height="1" fill="#79584f"></rect>
    <rect x="10" y="14" width="1" height="1" fill="#79584f"></rect>
    <rect x="11" y="14" width="1" height="1" fill="#79584f"></rect>
    <rect x="12" y="14" width="1" height="1" fill="#563a3f"></rect>
    <rect x="13" y="14" width="1" height="1" fill="#563a3e"></rect>
    <rect x="14" y="14" width="1" height="1" fill="#79584f"></rect>
    <rect x="15" y="14" width="1" height="1" fill="#79584f"></rect>
    <rect x="16" y="14" width="1" height="1" fill="#563a3f"></rect>
    <rect x="17" y="14" width="1" height="1" fill="#201729"></rect>
    <rect x="18" y="14" width="1" height="1" fill="#201729"></rect>
    <rect x="6" y="15" width="1" height="1" fill="#201729"></rect>
    <rect x="7" y="15" width="1" height="1" fill="#79584f"></rect>
    <rect x="8" y="15" width="1" height="1" fill="#563a3f"></rect>
    <rect x="9" y="15" width="1" height="1" fill="#79584f"></rect>
    <rect x="10" y="15" width="1" height="1" fill="#79584f"></rect>
    <rect x="11" y="15" width="1" height="1" fill="#79584f"></rect>
    <rect x="12" y="15" width="1" height="1" fill="#79584f"></rect>
    <rect x="13" y="15" width="1" height="1" fill="#563a3f"></rect>
    <rect x="14" y="15" width="1" height="1" fill="#79584f"></rect>
    <rect x="15" y="15" width="1" height="1" fill="#78584d"></rect>
    <rect x="16" y="15" width="1" height="1" fill="#79584f"></rect>
    <rect x="17" y="15" width="1" height="1" fill="#201428"></rect>
    <rect x="6" y="16" width="1" height="1" fill="#201729"></rect>
    <rect x="7" y="16" width="1" height="1" fill="#7b584f"></rect>
    <rect x="8" y="16" width="1" height="1" fill="#79584d"></rect>
    <rect x="9" y="16" width="1" height="1" fill="#563a3f"></rect>
    <rect x="10" y="16" width="1" height="1" fill="#79584f"></rect>
    <rect x="11" y="16" width="1" height="1" fill="#79584f"></rect>
    <rect x="12" y="16" width="1" height="1" fill="#79584f"></rect>
    <rect x="13" y="16" width="1" height="1" fill="#79584f"></rect>
    <rect x="14" y="16" width="1" height="1" fill="#795a4f"></rect>
    <rect x="15" y="16" width="1" height="1" fill="#79584f"></rect>
    <rect x="16" y="16" width="1" height="1" fill="#79584f"></rect>
    <rect x="17" y="16" width="1" height="1" fill="#201729"></rect>
    <rect x="6" y="17" width="1" height="1" fill="#221729"></rect>
    <rect x="7" y="17" width="1" height="1" fill="#563a3f"></rect>
    <rect x="8" y="17" width="1" height="1" fill="#79584d"></rect>
    <rect x="9" y="17" width="1" height="1" fill="#563b3e"></rect>
    <rect x="10" y="17" width="1" height="1" fill="#79584f"></rect>
    <rect x="11" y="17" width="1" height="1" fill="#79584f"></rect>
    <rect x="12" y="17" width="1" height="1" fill="#79584f"></rect>
    <rect x="13" y="17" width="1" height="1" fill="#563a3f"></rect>
    <rect x="14" y="17" width="1" height="1" fill="#79584f"></rect>
    <rect x="15" y="17" width="1" height="1" fill="#795a4f"></rect>
    <rect x="16" y="17" width="1" height="1" fill="#563a3f"></rect>
    <rect x="17" y="17" width="1" height="1" fill="#201729"></rect>
    <rect x="7" y="18" width="1" height="1" fill="#201729"></rect>
    <rect x="8" y="18" width="1" height="1" fill="#221729"></rect>
    <rect x="9" y="18" width="1" height="1" fill="#543a3f"></rect>
    <rect x="10" y="18" width="1" height="1" fill="#79584f"></rect>
    <rect x="11" y="18" width="1" height="1" fill="#543a3f"></rect>
    <rect x="12" y="18" width="1" height="1" fill="#79584f"></rect>
    <rect x="13" y="18" width="1" height="1" fill="#563a3f"></rect>
    <rect x="14" y="18" width="1" height="1" fill="#573a3f"></rect>
    <rect x="15" y="18" width="1" height="1" fill="#201729"></rect>
    <rect x="16" y="18" width="1" height="1" fill="#221729"></rect>
    <rect x="7" y="19" width="1" height="1" fill="#201729"></rect>
    <rect x="8" y="19" width="1" height="1" fill="#29973b"></rect>
    <rect x="9" y="19" width="1" height="1" fill="#201729"></rect>
    <rect x="10" y="19" width="1" height="1" fill="#211729"></rect>
    <rect x="11" y="19" width="1" height="1" fill="#211729"></rect>
    <rect x="12" y="19" width="1" height="1" fill="#201729"></rect>
    <rect x="13" y="19" width="1" height="1" fill="#201729"></rect>
    <rect x="14" y="19" width="1" height="1" fill="#22172b"></rect>
    <rect x="15" y="19" width="1" height="1" fill="#29973a"></rect>
    <rect x="16" y="19" width="1" height="1" fill="#211729"></rect>
    <rect x="7" y="20" width="1" height="1" fill="#201729"></rect>
    <rect x="8" y="20" width="1" height="1" fill="#2d5b3d"></rect>
    <rect x="9" y="20" width="1" height="1" fill="#2d5b3f"></rect>
    <rect x="10" y="20" width="1" height="1" fill="#201729"></rect>
    <rect x="13" y="20" width="1" height="1" fill="#201729"></rect>
    <rect x="14" y="20" width="1" height="1" fill="#2d5b3f"></rect>
    <rect x="15" y="20" width="1" height="1" fill="#2d5b3f"></rect>
    <rect x="16" y="20" width="1" height="1" fill="#201529"></rect>
    <rect x="7" y="21" width="1" height="1" fill="#201729"></rect>
    <rect x="8" y="21" width="1" height="1" fill="#2d5b3f"></rect>
    <rect x="9" y="21" width="1" height="1" fill="#2d5b3f"></rect>
    <rect x="10" y="21" width="1" height="1" fill="#201729"></rect>
    <rect x="13" y="21" width="1" height="1" fill="#201729"></rect>
    <rect x="14" y="21" width="1" height="1" fill="#2d5b3f"></rect>
    <rect x="15" y="21" width="1" height="1" fill="#2d5b3f"></rect>
    <rect x="16" y="21" width="1" height="1" fill="#201729"></rect>
    <rect x="8" y="22" width="1" height="1" fill="#221729"></rect>
    <rect x="9" y="22" width="1" height="1" fill="#201629"></rect>
    <rect x="14" y="22" width="1" height="1" fill="#201729"></rect>
    <rect x="15" y="22" width="1" height="1" fill="#231729"></rect>
</svg>