<svg xmlns="http://www.w3.org/2000/svg" width="1000" height="1000" viewBox="-1.5 -0.5 26.5 26.5" shape-rendering="crispEdges">
<g transform="translate(11.5, 12.5) scale(0.62) translate(-11.5, -12.5)">
    <path d="M7,23h1v1h2v1h7v-1h2v-1h1v-1h-1v-1h-2v1h-4v-2h-2v2h-4Z" fill="black" opacity="0.25"></path>
    <rect x="9" y="2" width="1" height="1" fill="black"></rect>
    <rect x="10" y="2" width="1" height="1" fill="black"></rect>
    <rect x="11" y="2" width="1" height="1" fill="black"></rect>
    <rect x="12" y="2" width="1" height="1" fill="black"></rect>
    <rect x="13" y="2" width="1" height="1" fill="black"></rect>
    <rect x="7" y="3" width="1" height="1" fill="black"></rect>
    <rect x="8" y="3" width="1" height="1" fill="black"></rect>
    <rect x="14" y="3" width="1" height="1" fill="black"></rect>
    <rect x="15" y="3" width="1" height="1" fill="black"></rect>
    <rect x="16" y="3" width="1" height="1" fill="black"></rect>
    <rect x="6" y="4" width="1" height="1" fill="black"></rect>
    <rect x="9" y="4" width="1" height="1" fill="black"></rect>
    <rect x="10" y="4" width="1" height="1" fill="black"></rect>
    <rect x="11" y="4" width="1" height="1" fill="black"></rect>
    <rect x="12" y="4" width="1" height="1" fill="black"></rect>
    <rect x="13" y="4" width="1" height="1" fill="black"></rect>
    <rect x="17" y="4" width="1" height="1" fill="black"></rect>
    <rect x="5" y="5" width="1" height="1" fill="black"></rect>
    <rect x="7" y="5" width="1" height="1" fill="black"></rect>
    <rect x="8" y="5" width="1" height="1" fill="black"></rect>
    <rect x="9" y="5" width="1" height="1" fill="black"></rect>
    <rect x="10" y="5" width="1" height="1" fill="black"></rect>
    <rect x="11" y="5" width="1" height="1" fill="black"></rect>
    <rect x="12" y="5" width="1" height="1" fill="black"></rect>
    <rect x="13" y="5" width="1" height="1" fill="black"></rect>
    <rect x="14" y="5" width="1" height="1" fill="black"></rect>
    <rect x="15" y="5" width="1" height="1" fill="black"></rect>
    <rect x="18" y="5" width="1" height="1" fill="black"></rect>
    <rect x="5" y="6" width="1" height="1" fill="black"></rect>
    <rect x="8" y="6" width="1" height="1" fill="black"></rect>
    <rect x="9" y="6" width="1" height="1" fill="black"></rect>
    <rect x="10" y="6" width="1" height="1" fill="black"></rect>
    <rect x="11" y="6" width="1" height="1" fill="black"></rect>
    <rect x="12" y="6" width="1" height="1" fill="black"></rect>
    <rect x="13" y="6" width="1" height="1" fill="black"></rect>
    <rect x="14" y="6" width="1" height="1" fill="black"></rect>
    <rect x="18" y="6" width="1" height="1" fill="black"></rect>
    <rect x="5" y="7" width="1" height="1" fill="black"></rect>
    <rect x="6" y="7" width="1" height="1" fill="black"></rect>
    <rect x="16" y="7" width="1" height="1" fill="black"></rect>
    <rect x="17" y="7" width="1" height="1" fill="black"></rect>
    <rect x="2" y="8" width="1" height="1" fill="black"></rect>
    <rect x="3" y="8" width="1" height="1" fill="black"></rect>
    <rect x="4" y="8" width="1" height="1" fill="black"></rect>
    <rect x="5" y="8" width="1" height="1" fill="black"></rect>
    <rect x="6" y="8" width="1" height="1" fill="black"></rect>
    <rect x="7" y="8" width="1" height="1" fill="black"></rect>
    <rect x="8" y="8" width="1" height="1" fill="black"></rect>
    <rect x="10" y="8" width="1" height="1" fill="black" opacity="0.9"></rect>
    <rect x="11" y="8" width="1" height="1" fill="black"></rect>
    <rect x="12" y="8" width="1" height="1" fill="black"></rect>
    <rect x="13" y="8" width="1" height="1" fill="black"></rect>
    <rect x="14" y="8" width="1" height="1" fill="black"></rect>
    <rect x="15" y="8" width="1" height="1" fill="black"></rect>
    <rect x="16" y="8" width="1" height="1" fill="black"></rect>
    <rect x="17" y="8" width="1" height="1" fill="black"></rect>
    <rect x="1" y="9" width="1" height="1" fill="black"></rect>
    <rect x="2" y="9" width="1" height="1" fill="black"></rect>
    <rect x="3" y="9" width="1" height="1" fill="black"></rect>
    <rect x="4" y="9" width="1" height="1" fill="black"></rect>
    <rect x="5" y="9" width="1" height="1" fill="black"></rect>
    <rect x="7" y="9" width="1" height="1" fill="black" opacity="0.9"></rect>
    <rect x="8" y="9" width="1" height="1" fill="black"></rect>
    <rect x="9" y="9" width="1" height="1" fill="black" opacity="0.9"></rect>
    <rect x="10" y="9" width="1" height="1" fill="black"></rect>
    <rect x="11" y="9" width="1" height="1" fill="black" opacity="0.9"></rect>
    <rect x="12" y="9" width="1" height="1" fill="black" opacity="0.8"></rect>
    <rect x="13" y="9" width="1" height="1" fill="black" opacity="0.8"></rect>
    <rect x="14" y="9" width="1" height="1" fill="black" opacity="0.9"></rect>
    <rect x="15" y="9" width="1" height="1" fill="black"></rect>
    <rect x="16" y="9" width="1" height="1" fill="black" opacity="0.9"></rect>
    <rect x="0" y="10" width="1" height="1" fill="black"></rect>
    <rect x="1" y="10" width="1" height="1" fill="black"></rect>
    <rect x="2" y="10" width="1" height="1" fill="black"></rect>
    <rect x="3" y="10" width="1" height="1" fill="black"></rect>
    <rect x="5" y="10" width="1" height="1" fill="black"></rect>
    <rect x="7" y="10" width="1" height="1" fill="black" opacity="0.9"></rect>
    <rect x="8" y="10" width="1" height="1" fill="black"></rect>
    <rect x="9" y="10" width="1" height="1" fill="black" opacity="0.9"></rect>
    <rect x="10" y="10" width="1" height="1" fill="black"></rect>
    <rect x="12" y="10" width="1" height="1" fill="black" opacity="0.8"></rect>
    <rect x="13" y="10" width="1" height="1" fill="black" opacity="0.8"></rect>
    <rect x="15" y="10" width="1" height="1" fill="black"></rect>
    <rect x="16" y="10" width="1" height="1" fill="black" opacity="0.9"></rect>
    <rect x="18" y="10" width="1" height="1" fill="black"></rect>
    <rect x="19" y="10" width="1" height="1" fill="black"></rect>
    <rect x="0" y="11" width="1" height="1" fill="black"></rect>
    <rect x="1" y="11" width="1" height="1" fill="black"></rect>
    <rect x="5" y="11" width="1" height="1" fill="black"></rect>
    <rect x="7" y="11" width="1" height="1" fill="black"></rect>
    <rect x="8" y="11" width="1" height="1" fill="black"></rect>
    <rect x="9" y="11" width="1" height="1" fill="black" opacity="0.9"></rect>
    <rect x="10" y="11" width="1" height="1" fill="black"></rect>
    <rect x="11" y="11" width="1" height="1" fill="black" opacity="0.8"></rect>
    <rect x="12" y="11" width="1" height="1" fill="black" opacity="0.8"></rect>
    <rect x="13" y="11" width="1" height="1" fill="black" opacity="0.8"></rect>
    <rect x="14" y="11" width="1" height="1" fill="black" opacity="0.8"></rect>
    <rect x="15" y="11" width="1" height="1" fill="black"></rect>
    <rect x="16" y="11" width="1" height="1" fill="black" opacity="0.9"></rect>
    <rect x="17" y="11" width="1" height="1" fill="black"></rect>
    <rect x="20" y="11" width="1" height="1" fill="black"></rect>
    <rect x="5" y="12" width="1" height="1" fill="black"></rect>
    <rect x="7" y="12" width="1" height="1" fill="black"></rect>
    <rect x="8" y="12" width="1" height="1" fill="black" opacity="0.9"></rect>
    <rect x="9" y="12" width="1" height="1" fill="black"></rect>
    <rect x="10" y="12" width="1" height="1" fill="black"></rect>
    <rect x="11" y="12" width="1" height="1" fill="black"></rect>
    <rect x="12" y="12" width="1" height="1" fill="black" opacity="0.8"></rect>
    <rect x="13" y="12" width="1" height="1" fill="black" opacity="0.8"></rect>
    <rect x="14" y="12" width="1" height="1" fill="black" opacity="0.9"></rect>
    <rect x="15" y="12" width="1" height="1" fill="black"></rect>
    <rect x="16" y="12" width="1" height="1" fill="black"></rect>
    <rect x="17" y="12" width="1" height="1" fill="black" opacity="0.9"></rect>
    <rect x="18" y="12" width="1" height="1" fill="black" opacity="0.9"></rect>
    <rect x="20" y="12" width="1" height="1" fill="black"></rect>
    <rect x="5" y="13" width="1" height="1" fill="black"></rect>
    <rect x="7" y="13" width="1" height="1" fill="black"></rect>
    <rect x="8" y="13" width="1" height="1" fill="black" opacity="0.9"></rect>
    <rect x="9" y="13" width="1" height="1" fill="black"></rect>
    <rect x="10" y="13" width="1" height="1" fill="black"></rect>
    <rect x="11" y="13" width="1" height="1" fill="black"></rect>
    <rect x="12" y="13" width="1" height="1" fill="black"></rect>
    <rect x="13" y="13" width="1" height="1" fill="black"></rect>
    <rect x="14" y="13" width="1" height="1" fill="black" opacity="0.9"></rect>
    <rect x="15" y="13" width="1" height="1" fill="black"></rect>
    <rect x="16" y="13" width="1" height="1" fill="black"></rect>
    <rect x="17" y="13" width="1" height="1" fill="black" opacity="0.9"></rect>
    <rect x="18" y="13" width="1" height="1" fill="black" opacity="0.9"></rect>
    <rect x="19" y="13" width="1" height="1" fill="black"></rect>
    <rect x="5" y="14" width="1" height="1" fill="black"></rect>
    <rect x="6" y="14" width="1" height="1" fill="black" opacity="0.9"></rect>
    <rect x="8" y="14" width="1" height="1" fill="black" opacity="0.9"></rect>
    <rect x="9" y="14" width="1" height="1" fill="black"></rect>
    <rect x="10" y="14" width="1" height="1" fill="black"></rect>
    <rect x="11" y="14" width="1" height="1" fill="black"></rect>
    <rect x="12" y="14" width="1" height="1" fill="black" opacity="0.9"></rect>
    <rect x="13" y="14" width="1" height="1" fill="black" opacity="0.9"></rect>
    <rect x="14" y="14" width="1" height="1" fill="black"></rect>
    <rect x="15" y="14" width="1" height="1" fill="black"></rect>
    <rect x="16" y="14" width="1" height="1" fill="black" opacity="0.9"></rect>
    <rect x="17" y="14" width="1" height="1" fill="black"></rect>
    <rect x="18" y="14" width="1" height="1" fill="black"></rect>
    <rect x="6" y="15" width="1" height="1" fill="black"></rect>
    <rect x="8" y="15" width="1" height="1" fill="black" opacity="0.9"></rect>
    <rect x="9" y="15" width="1" height="1" fill="black"></rect>
    <rect x="10" y="15" width="1" height="1" fill="black"></rect>
    <rect x="11" y="15" width="1" height="1" fill="black"></rect>
    <rect x="12" y="15" width="1" height="1" fill="black"></rect>
    <rect x="13" y="15" width="1" height="1" fill="black" opacity="0.9"></rect>
    <rect x="14" y="15" width="1" height="1" fill="black"></rect>
    <rect x="15" y="15" width="1" height="1" fill="black"></rect>
    <rect x="16" y="15" width="1" height="1" fill="black"></rect>
    <rect x="17" y="15" width="1" height="1" fill="black"></rect>
    <rect x="6" y="16" width="1" height="1" fill="black"></rect>
    <rect x="8" y="16" width="1" height="1" fill="black"></rect>
    <rect x="9" y="16" width="1" height="1" fill="black" opacity="0.9"></rect>
    <rect x="10" y="16" width="1" height="1" fill="black"></rect>
    <rect x="11" y="16" width="1" height="1" fill="black"></rect>
    <rect x="12" y="16" width="1" height="1" fill="black"></rect>
    <rect x="13" y="16" width="1" height="1" fill="black"></rect>
    <rect x="14" y="16" width="1" height="1" fill="black"></rect>
    <rect x="15" y="16" width="1" height="1" fill="black"></rect>
    <rect x="16" y="16" width="1" height="1" fill="black"></rect>
    <rect x="17" y="16" width="1" height="1" fill="black"></rect>
    <rect x="6" y="17" width="1" height="1" fill="black"></rect>
    <rect x="7" y="17" width="1" height="1" fill="black" opacity="0.9"></rect>
    <rect x="8" y="17" width="1" height="1" fill="black"></rect>
    <rect x="9" y="17" width="1" height="1" fill="black" opacity="0.9"></rect>
    <rect x="10" y="17" width="1" height="1" fill="black"></rect>
    <rect x="11" y="17" width="1" height="1" fill="black"></rect>
    <rect x="12" y="17" width="1" height="1" fill="black"></rect>
    <rect x="13" y="17" width="1" height="1" fill="black" opacity="0.9"></rect>
    <rect x="14" y="17" width="1" height="1" fill="black"></rect>
    <rect x="15" y="17" width="1" height="1" fill="black"></rect>
    <rect x="16" y="17" width="1" height="1" fill="black" opacity="0.9"></rect>
    <rect x="17" y="17" width="1" height="1" fill="black"></rect>
    <rect x="7" y="18" width="1" height="1" fill="black"></rect>
    <rect x="8" y="18" width="1" height="1" fill="black"></rect>
    <rect x="9" y="18" width="1" height="1" fill="black" opacity="0.9"></rect>
    <rect x="10" y="18" width="1" height="1" fill="black"></rect>
    <rect x="11" y="18" width="1" height="1" fill="black" opacity="0.9"></rect>
    <rect x="12" y="18" width="1" height="1" fill="black"></rect>
    <rect x="13" y="18" width="1" height="1" fill="black" opacity="0.9"></rect>
    <rect x="14" y="18" width="1" height="1" fill="black" opacity="0.9"></rect>
    <rect x="15" y="18" width="1" height="1" fill="black"></rect>
    <rect x="16" y="18" width="1" height="1" fill="black"></rect>
    <rect x="7" y="19" width="1" height="1" fill="black"></rect>
    <rect x="9" y="19" width="1" height="1" fill="black"></rect>
    <rect x="10" y="19" width="1" height="1" fill="black"></rect>
    <rect x="11" y="19" width="1" height="1" fill="black"></rect>
    <rect x="12" y="19" width="1" height="1" fill="black"></rect>
    <rect x="13" y="19" width="1" height="1" fill="black"></rect>
    <rect x="14" y="19" width="1" height="1" fill="black"></rect>
    <rect x="16" y="19" width="1" height="1" fill="black"></rect>
    <rect x="7" y="20" width="1" height="1" fill="black"></rect>
    <rect x="8" y="20" width="1" height="1" fill="black" opacity="0.1"></rect>
    <rect x="9" y="20" width="1" height="1" fill="black" opacity="0.1"></rect>
    <rect x="10" y="20" width="1" height="1" fill="black"></rect>
    <rect x="13" y="20" width="1" height="1" fill="black"></rect>
    <rect x="14" y="20" width="1" height="1" fill="black" opacity="0.1"></rect>
    <rect x="15" y="20" width="1" height="1" fill="black" opacity="0.1"></rect>
    <rect x="16" y="20" width="1" height="1" fill="black"></rect>
    <rect x="7" y="21" width="1" height="1" fill="black"></rect>
    <rect x="8" y="21" width="1" height="1" fill="black" opacity="0.1"></rect>
    <rect x="9" y="21" width="1" height="1" fill="black" opacity="0.1"></rect>
    <rect x="10" y="21" width="1" height="1" fill="black"></rect>
    <rect x="13" y="21" width="1" height="1" fill="black"></rect>
    <rect x="14" y="21" width="1" height="1" fill="black" opacity="0.1"></rect>
    <rect x="15" y="21" width="1" height="1" fill="black" opacity="0.1"></rect>
    <rect x="16" y="21" width="1" height="1" fill="black"></rect>
    <rect x="8" y="22" width="1" height="1" fill="black"></rect>
    <rect x="9" y="22" width="1" height="1" fill="black"></rect>
    <rect x="14" y="22" width="1" height="1" fill="black"></rect>
    <rect x="15" y="22" width="1" height="1" fill="black"></rect>
</g>
</svg>